<svg width="36" height="36" viewBox="0 0 36 36" fill="none" xmlns="http://www.w3.org/2000/svg">
<path fill-rule="evenodd" clip-rule="evenodd" d="M18 6C24.6274 6 30 11.3726 30 18C30 24.6274 24.6274 30 18 30C11.3726 30 6 24.6274 6 18C6 11.3726 11.3726 6 18 6ZM33 18C33 9.71573 26.2843 3 18 3C9.71573 3 3 9.71573 3 18C3 26.2843 9.71573 33 18 33C26.2843 33 33 26.2843 33 18Z" fill="white" fill-opacity="0.4"/>
<path fill-rule="evenodd" clip-rule="evenodd" d="M24 16.5C24.8284 16.5 25.5 17.1716 25.5 18C25.5 18.8284 24.8284 19.5 24 19.5H15.6211L20.1213 24.0001L18 26.1215L10.9393 19.0608C10.7663 18.8878 10.6444 18.6831 10.5736 18.4654C10.5387 18.3585 10.5155 18.2462 10.5056 18.1302C10.499 18.0545 10.4982 17.9783 10.5031 17.9024C10.5143 17.7282 10.5552 17.5621 10.6209 17.4091C10.6773 17.2773 10.7534 17.152 10.8493 17.0377C10.8809 16.9999 10.9144 16.9637 10.9495 16.9293L18 9.87882L20.1213 12.0001L15.6214 16.5H24Z" fill="white"/>
</svg>
