<svg width="17" height="20" viewBox="0 0 17 20" fill="none" xmlns="http://www.w3.org/2000/svg">
<path d="M4.7188 11.3124C2.1045 12.0269 0.25 14.3001 0.25 16.9999V18.9999C0.25 19.5522 0.6977 19.9999 1.25 19.9999H15.25C15.8023 19.9999 16.25 19.5522 16.25 18.9999V16.9999C16.25 14.3001 14.3955 12.0269 11.7812 11.3124C11.5571 11.2511 11.3369 11.2794 11.125 11.3749C10.2095 11.7875 9.2349 11.9999 8.25 11.9999C7.2651 11.9999 6.2905 11.7875 5.375 11.3749C5.1631 11.2794 4.9429 11.2511 4.7188 11.3124ZM5.125 13.3124C6.1348 13.6943 7.1697 13.9999 8.25 13.9999C9.3303 13.9999 10.3652 13.6943 11.375 13.3124C13.0784 13.8284 14.25 15.2663 14.25 16.9999V17.9999H2.25V16.9999C2.25 15.2663 3.4216 13.8284 5.125 13.3124Z" fill="white" fill-opacity="0.4"/>
<path d="M8.25 0C5.4886 0 3.25 2.2386 3.25 5C3.25 7.7614 5.4886 10 8.25 10C11.0114 10 13.25 7.7614 13.25 5C13.25 2.2386 11.0114 0 8.25 0ZM8.25 2C9.9069 2 11.25 3.3431 11.25 5C11.25 6.6569 9.9069 8 8.25 8C6.5931 8 5.25 6.6569 5.25 5C5.25 3.3431 6.5931 2 8.25 2Z" fill="white"/>
</svg>
