<svg width="44" height="50" viewBox="0 0 44 50" fill="none" xmlns="http://www.w3.org/2000/svg">
<g clip-path="url(#clip0_250_1572)">
<path d="M16.4704 24.7513C19.4972 26.6885 23.2185 26.8979 26.6777 25.3141C27.4115 24.9738 27.739 24.11 27.3984 23.377C27.0577 22.644 26.1929 22.3168 25.4591 22.6571C22.9302 23.822 20.231 23.6911 18.0559 22.2906C15.9332 20.9293 14.6622 18.6257 14.6622 16.1126C14.6622 12.0681 17.9511 8.78272 21.9999 8.78272C26.0488 8.78272 29.3376 12.0681 29.3376 16.1126C29.3376 16.9241 28.6825 17.5785 27.8701 17.5785C27.1363 17.5785 26.4418 17.0157 26.4025 16.1387V16.1126C26.4025 13.6911 24.424 11.7147 21.9999 11.7147C19.5759 11.7147 17.5973 13.6911 17.5973 16.1126C17.5973 18.534 19.5759 20.5105 21.9999 20.5105C23.1268 20.5105 24.1488 20.0916 24.935 19.3848C25.7081 20.0785 26.7432 20.5105 27.8701 20.5105C30.2941 20.5105 32.2727 18.534 32.2727 16.1126C32.2727 10.4581 27.6735 5.86388 21.9999 5.86388C16.3263 5.86388 11.7402 10.4581 11.7402 16.1126C11.7402 19.6204 13.5091 22.8534 16.4835 24.7513H16.4704ZM21.9999 17.5785C21.1875 17.5785 20.5324 16.9241 20.5324 16.1126C20.5324 15.301 21.1875 14.6466 21.9999 14.6466C22.7468 14.6466 23.3757 15.2094 23.4543 15.9424C23.4281 16.0733 23.4281 16.2173 23.4543 16.3482C23.3364 17.0419 22.7337 17.5785 22.013 17.5785H21.9999Z" fill="white"/>
<path d="M44 19.2408C44 18.8613 43.8428 18.4817 43.5676 18.2068L38.1298 12.7749V1.46597C38.1298 0.65445 37.4747 0 36.6623 0H7.3377C6.52531 0 5.87016 0.65445 5.87016 1.46597V12.7749L0.4324 18.2068H0.419297C0.144133 18.5079 0 18.8743 0 19.2408V45.6152C0 48.0366 1.97856 50.0131 4.40262 50.0131H39.5974C42.0214 50.0131 44 48.0366 44 45.6152V19.2408ZM40.4622 19.2408L38.1429 21.5576V16.911L40.4622 19.2277V19.2408ZM35.1948 2.93194V13.377V24.4895L27.2543 32.4215H16.7457L8.80524 24.4895V13.377V2.93194H35.1948ZM5.87016 21.5576L3.55092 19.2408L5.87016 16.9241V21.5707V21.5576ZM2.93508 45V22.7749L14.0596 33.8874L2.93508 45ZM5.00536 47.0681L16.7326 35.3534H27.2543L38.9815 47.0681H5.00536ZM41.0649 45L29.9404 33.8874L41.0649 22.7749V45Z" fill="white"/>
</g>
<defs>
<clipPath id="clip0_250_1572">
<rect width="44" height="50" fill="white"/>
</clipPath>
</defs>
</svg>
