<svg width="51" height="66" viewBox="0 0 51 66" fill="none" xmlns="http://www.w3.org/2000/svg">
<g clip-path="url(#clip0_250_1591)">
<path d="M10.9586 65.014L7.8363 57.1888L0 56.9101L14.9469 32.9701L25.9055 41.074L10.9586 65.014Z" fill="#0082C3"/>
<path d="M40.0414 65.014L43.1637 57.1888L51 56.9101L36.0531 32.9701L25.0945 41.074L40.0414 65.014Z" fill="#0082C3"/>
<path d="M27.1679 1.75581C26.2531 -0.261865 24.7529 -0.261865 23.8321 1.75581L18.7217 13.019C17.807 15.0366 15.3799 16.9614 13.3308 17.2866L1.90875 19.0985C-0.14028 19.4237 -0.60375 20.9768 0.878134 22.5498L9.14742 31.3108C10.6293 32.8838 11.5562 35.9899 11.2086 38.2067L9.25109 50.5915C8.89739 52.815 10.1109 53.7707 11.9465 52.722L22.1612 46.8814C23.9968 45.8327 26.9971 45.8327 28.8266 46.8814L39.0412 52.722C40.8768 53.7707 42.0904 52.8083 41.7367 50.5915L39.7852 38.2067C39.4376 35.9833 40.3646 32.8838 41.8464 31.3108L50.1096 22.5498C51.5915 20.9768 51.128 19.4237 49.079 19.0985L37.6569 17.2866C35.6079 16.9614 33.1808 15.0433 32.266 13.019L27.1679 1.75581Z" fill="#FCC659"/>
<path d="M49.0911 19.0986L37.669 17.2867C37.669 17.2867 37.6507 17.2867 37.6385 17.28C33.26 30.1095 23.0453 39.8528 10.5011 42.6735L9.251 50.5916C8.8973 52.815 10.1109 53.7708 11.9464 52.7221L22.1611 46.8815C23.9967 45.8328 26.997 45.8328 28.8265 46.8815L39.0411 52.7221C40.8767 53.7708 42.0903 52.8084 41.7366 50.5916L39.7851 38.2068C39.4375 35.9834 40.3645 32.8838 41.8464 31.3108L50.1095 22.5499C51.5914 20.9769 51.128 19.4238 49.0789 19.0986H49.0911Z" fill="#F9B53D"/>
<path d="M31.7843 11.9371L27.1679 1.7624C26.2531 -0.255273 24.7529 -0.255273 23.8321 1.7624L18.7217 13.0255C17.807 15.0432 15.3799 16.968 13.3308 17.2932L1.90875 19.0985C-0.14028 19.4237 -0.60375 20.9768 0.878134 22.5498L4.63468 26.5254C4.9396 26.532 5.23841 26.5519 5.54333 26.5519C16.4898 26.5519 26.1312 20.7445 31.7843 11.9371Z" fill="#FFCB6E"/>
</g>
<defs>
<clipPath id="clip0_250_1591">
<rect width="51" height="64.7714" fill="white" transform="translate(0 0.242554)"/>
</clipPath>
</defs>
</svg>
