<svg width="60" height="60" viewBox="0 0 60 60" fill="none" xmlns="http://www.w3.org/2000/svg">
<path d="M22.42 6.13866C18.875 7.26367 15.8176 9.09867 13.1226 11.6087C12.2901 12.3837 12.0351 13.6537 12.5751 14.6537C14.5776 18.3562 12.4825 22.3187 7.96505 22.5462C6.86005 22.6012 5.88256 23.4212 5.62256 24.4987C5.17506 26.3612 4.99756 27.9212 4.99756 29.9662C4.99756 31.6837 5.18254 33.6287 5.54504 35.3587C5.77004 36.4387 6.71006 37.2162 7.81006 37.3112C12.3551 37.7037 14.6051 41.1712 12.5751 45.5912C12.1251 46.5737 12.3301 47.7487 13.1226 48.4837C15.7776 50.9387 18.8275 52.6712 22.42 53.7962C23.445 54.1162 24.6025 53.7287 25.2325 52.8587C28.0125 49.0112 32.0451 48.9987 34.6851 52.8587C35.3076 53.7662 36.4476 54.2037 37.4976 53.8737C40.9651 52.7812 44.1951 50.9237 46.8726 48.4837C47.6976 47.7312 47.915 46.5137 47.42 45.5137C45.34 41.3162 47.7326 37.4637 52.0276 37.3887C53.1676 37.3687 54.1826 36.6212 54.4501 35.5137C54.8826 33.7212 54.9976 32.1612 54.9976 29.9662C54.9976 28.0812 54.7751 26.2237 54.3726 24.4212C54.1176 23.2787 53.1201 22.4687 51.9501 22.4662C47.7226 22.4587 45.3525 18.3037 47.42 14.6537C47.995 13.6387 47.8151 12.3937 46.9501 11.6087C44.2251 9.13367 40.9025 7.19867 37.42 6.13866C36.35 5.81366 35.2125 6.21368 34.6075 7.15368C32.1925 10.9062 27.6826 10.9712 25.3101 7.23367C24.7026 6.27367 23.5 5.79616 22.42 6.13866ZM37.6151 11.4487C39.3226 12.1637 40.6701 12.9112 42.2176 14.0837C40.4026 19.8262 43.48 25.7912 49.855 27.2437C50.0125 28.2762 49.9976 28.9012 49.9976 29.9662C49.9976 31.2387 50.0151 31.6862 49.8701 32.6062C43.5226 33.9212 40.3825 39.7187 42.15 45.8462C40.63 46.9487 39.5425 47.7137 37.635 48.4512C33.155 43.8912 26.9351 43.6912 22.3601 48.4812C20.5751 47.6962 19.2026 46.9987 17.8151 45.8262C19.5351 39.6037 16.6276 34.2312 10.1726 32.6012C9.88508 31.4612 10.0001 28.2412 10.1651 27.2637C16.8401 25.6637 19.4701 19.7562 17.8126 14.0662C19.2776 12.9637 20.5951 12.1612 22.3076 11.4662C26.6201 15.8537 33.0951 16.2912 37.6151 11.4487Z" fill="white"/>
<path fill-rule="evenodd" clip-rule="evenodd" d="M30 25C27.2386 25 25 27.2386 25 30C25 32.7614 27.2386 35 30 35C32.7614 35 35 32.7614 35 30C35 27.2386 32.7614 25 30 25ZM20 30C20 24.4772 24.4772 20 30 20C35.5228 20 40 24.4772 40 30C40 35.5228 35.5228 40 30 40C24.4772 40 20 35.5228 20 30Z" fill="white"/>
</svg>
